<?xml version="1.0" encoding="UTF-8"?>
<svg version="1.1" xmlns="http://www.w3.org/2000/svg" width="180" height="180">
<path d="M0 0 C59.4 0 118.8 0 180 0 C180 59.4 180 118.8 180 180 C120.6 180 61.2 180 0 180 C0 120.6 0 61.2 0 0 Z " fill="#E98900" transform="translate(0,0)"/>
<path d="M0 0 C2.71656606 0.05884259 4.44233053 0.42518987 6.36621094 2.40820312 C7.78973761 4.30830626 9.09213592 6.25234361 10.375 8.25 C10.83777344 8.91902344 11.30054688 9.58804688 11.77734375 10.27734375 C15.05272954 15.25397469 15.05272954 15.25397469 14.7890625 18.984375 C14.39847656 19.98210938 14.39847656 19.98210938 14 21 C12.02 21 10.04 21 8 21 C8.103125 21.9075 8.20625 22.815 8.3125 23.75 C8.26238604 36.17826321 -1.76872 49.1805951 -9.8515625 57.8828125 C-33.71276764 81.39694556 -70.16545574 92.97004025 -103.0625 93.125 C-103.92125732 93.12975342 -104.78001465 93.13450684 -105.66479492 93.1394043 C-111.87742873 93.12257127 -111.87742873 93.12257127 -113 92 C-113.1245486 90.35769636 -113.17568524 88.70947724 -113.1875 87.0625 C-113.20167969 86.16660156 -113.21585938 85.27070312 -113.23046875 84.34765625 C-113 82 -113 82 -111 80 C-108.85546875 79.65283203 -108.85546875 79.65283203 -106.1875 79.5078125 C-105.20362305 79.44505127 -104.21974609 79.38229004 -103.20605469 79.31762695 C-102.14805664 79.25406006 -101.09005859 79.19049316 -100 79.125 C-70.66784247 76.97359806 -39.45784577 67.89601421 -18.3671875 46.3046875 C-11.84989915 38.75495743 -7.83402343 30.53262427 -5 21 C-6.65 21 -8.3 21 -10 21 C-10.83984375 19.01953125 -10.83984375 19.01953125 -11 16 C-9.51142322 12.99909663 -7.54955705 10.37615397 -5.5625 7.6875 C-5.03333984 6.94693359 -4.50417969 6.20636719 -3.95898438 5.44335938 C-2.65239087 3.61883692 -1.33275509 1.80545327 0 0 Z " fill="#040200" transform="translate(139,28)"/>
<path d="M0 0 C0.33 0 0.66 0 1 0 C1.0926561 10.10077513 1.16374267 20.20144925 1.20724869 30.30256271 C1.22812886 34.99287673 1.25645422 39.68290013 1.30175781 44.37304688 C1.34520044 48.89882516 1.36913387 53.42432381 1.37950897 57.95029449 C1.38690321 59.67750705 1.40134245 61.4047042 1.42292023 63.13179779 C1.45193394 65.55011639 1.45595697 67.96727771 1.45410156 70.38574219 C1.47567322 71.45820694 1.47567322 71.45820694 1.49768066 72.55233765 C1.469706 75.91928771 1.21524902 77.71132063 -0.8213501 80.44268799 C-3.91404788 82.6533669 -6.23534569 82.53190385 -10 82.5 C-11.8253125 82.51546875 -11.8253125 82.51546875 -13.6875 82.53125 C-17.62368409 81.89997519 -18.54444182 81.05784102 -21 78 C-21.57522583 75.60110474 -21.57522583 75.60110474 -21.67626953 72.90283203 C-21.72115509 71.88722198 -21.76604065 70.87161194 -21.81228638 69.82522583 C-21.83556 68.73047943 -21.85883362 67.63573303 -21.8828125 66.5078125 C-21.91035614 65.37028534 -21.93789978 64.23275818 -21.96627808 63.0607605 C-22.01283882 60.64845213 -22.04736147 58.235886 -22.07080078 55.82324219 C-22.12435689 52.1688822 -22.27396895 48.52640727 -22.42578125 44.875 C-22.85274228 25.6233444 -22.85274228 25.6233444 -16.12167358 18.45358276 C-13.73357752 16.27914349 -11.23305036 14.31904919 -8.6441803 12.39089966 C-5.25986314 9.52792558 -3.31745809 5.72623656 -1.13671875 1.9140625 C-0.76160156 1.28242187 -0.38648438 0.65078125 0 0 Z " fill="#030100" transform="translate(145,70)"/>
<path d="M0 0 C0.07596686 6.63851606 0.12856456 13.27692035 0.16479492 19.91577148 C0.17989602 22.17492868 0.20037842 24.43405649 0.22631836 26.69311523 C0.26264308 29.93741093 0.27971308 33.18131956 0.29296875 36.42578125 C0.30845261 37.43836502 0.32393646 38.45094879 0.33988953 39.49421692 C0.34011612 40.43496567 0.34034271 41.37571442 0.34057617 42.3449707 C0.34723801 43.17325882 0.35389984 44.00154694 0.36076355 44.85493469 C-0.09057388 47.53854356 -0.81620042 48.41066904 -3 50 C-5.60041955 50.29869684 -7.90699159 50.41945157 -10.5 50.375 C-11.17675781 50.38660156 -11.85351562 50.39820313 -12.55078125 50.41015625 C-15.20079795 50.39447568 -17.38669195 50.36629222 -19.69848633 48.9855957 C-21.76798238 45.82836228 -21.36612248 42.4792262 -21.29296875 38.83203125 C-21.28872391 38.03721848 -21.28447906 37.2424057 -21.28010559 36.42350769 C-21.2633193 33.88615979 -21.22566824 31.34960762 -21.1875 28.8125 C-21.17245305 27.09180835 -21.15876466 25.37110424 -21.14648438 23.65039062 C-21.11341607 19.43328738 -21.06163495 15.21677858 -21 11 C-17.68936862 9.16327681 -14.37619334 7.33119238 -11.0625 5.5 C-10.11697266 4.97535156 -9.17144531 4.45070313 -8.19726562 3.91015625 C-7.29814453 3.41386719 -6.39902344 2.91757813 -5.47265625 2.40625 C-4.64000244 1.94541016 -3.80734863 1.48457031 -2.94946289 1.00976562 C-1 0 -1 0 0 0 Z " fill="#010000" transform="translate(115,102)"/>
<path d="M0 0 C0.09903473 4.48398784 0.17154483 8.96739292 0.21972656 13.45214844 C0.23981599 14.97700085 0.26709316 16.50177648 0.30175781 18.02636719 C0.35039796 20.22089598 0.37299396 22.41440469 0.390625 24.609375 C0.41157227 25.92905273 0.43251953 27.24873047 0.45410156 28.60839844 C0 32 0 32 -1.81738281 34.42871094 C-4.91138709 36.65611715 -7.22495246 36.53199193 -11 36.5 C-12.216875 36.5103125 -13.43375 36.520625 -14.6875 36.53125 C-18.6388516 35.89754267 -19.58259708 35.12145041 -22 32 C-22.45410156 29.15917969 -22.45410156 29.15917969 -22.390625 25.921875 C-22.37773438 24.76171875 -22.36484375 23.6015625 -22.3515625 22.40625 C-22.31804688 21.1996875 -22.28453125 19.993125 -22.25 18.75 C-22.22292969 16.91695312 -22.22292969 16.91695312 -22.1953125 15.046875 C-22.148181 12.03045922 -22.08239413 9.01562509 -22 6 C-21.05898438 5.73445313 -20.11796875 5.46890625 -19.1484375 5.1953125 C-17.90320313 4.84210938 -16.65796875 4.48890625 -15.375 4.125 C-14.14523438 3.77695313 -12.91546875 3.42890625 -11.6484375 3.0703125 C-9.30595278 2.38311677 -6.97562389 1.65214394 -4.6640625 0.8671875 C-2 0 -2 0 0 0 Z " fill="#040200" transform="translate(85,116)"/>
<path d="M0 0 C0.11618764 3.91641711 0.18724654 7.83239101 0.25 11.75 C0.28351562 12.86117187 0.31703125 13.97234375 0.3515625 15.1171875 C0.36445312 16.18710938 0.37734375 17.25703125 0.390625 18.359375 C0.41157227 19.34389648 0.43251953 20.32841797 0.45410156 21.34277344 C-0.12969564 24.75892866 -1.28539133 25.90969059 -4 28 C-7.3125 28.53125 -7.3125 28.53125 -11 28.5 C-12.8253125 28.51546875 -12.8253125 28.51546875 -14.6875 28.53125 C-18.62546871 27.89968898 -19.56807955 27.08531122 -22 24 C-22.45410156 21.43457031 -22.45410156 21.43457031 -22.390625 18.578125 C-22.37773437 17.55332031 -22.36484375 16.52851563 -22.3515625 15.47265625 C-22.31804688 14.40917969 -22.28453125 13.34570312 -22.25 12.25 C-22.23195313 11.17105469 -22.21390625 10.09210938 -22.1953125 8.98046875 C-22.14821415 6.31941212 -22.082456 3.66015746 -22 1 C-19.6460153 0.83034345 -17.29186616 0.6642065 -14.9375 0.5 C-13.62652344 0.4071875 -12.31554687 0.314375 -10.96484375 0.21875 C-7.29924005 0.0165098 -3.67009048 -0.0381804 0 0 Z " fill="#040200" transform="translate(54,124)"/>
</svg>
